<?xml version="1.0" encoding="UTF-8" standalone="no"?><!DOCTYPE svg PUBLIC "-//W3C//DTD SVG 1.1//EN" "http://www.w3.org/Graphics/SVG/1.1/DTD/svg11.dtd"><svg width="100%" height="100%" viewBox="0 0 266 297" version="1.1" xmlns="http://www.w3.org/2000/svg" xmlns:xlink="http://www.w3.org/1999/xlink" xml:space="preserve" xmlns:serif="http://www.serif.com/" style="fill-rule:evenodd;clip-rule:evenodd;stroke-linejoin:round;stroke-miterlimit:2;"><g><path d="M44.303,187.269c4.6,-0.9 14.6,-2.7 26.3,-4.6c1.5,-0.2 2.8,1.1 2.4,2.6c-0.7,2.7 -1.5,5.4 -2.5,8.2c-0.3,1 0.5,2 1.6,1.8c52.9,-10.2 90.3,-28 121.4,-52.8c1.6,-1.3 2.7,-3.2 3,-5.3c2.3,-15.8 -2.3,-24.8 -7.1,-29c-5.1,-4.6 -9,-9.2 -36.7,-10.9c-15.7,-0.6 -24.3,0.2 -27.1,0.5c-0.5,0.1 -0.7,0.6 -0.5,1c2.8,4.4 15.1,24.9 11.4,43.7l-6.1,-21.3c-4,-10.9 -10.2,-21.7 -13.1,-25.5c-0.8,-1.1 -0.4,-2.2 0.9,-2.4c3.7,-0.6 11.2,-0.9 19.6,-1.5c9.9,-0.4 19.4,-0.1 25.7,0.7c-7.1,-34.4 -22,-47 -55.6,-49.2l0,-33c0,-0.8 -0.7,-1.5 -1.5,-1.5l-4.9,-0c-0.8,-0 -1.5,0.7 -1.5,1.5l0,32.7c-27.9,-0.8 -52.1,1.8 -59.8,2.6c-1,0.1 -1.5,1.2 -1,2.1c2.7,4.5 13.4,17.7 17.7,36.3c-10,-0.2 -20.9,1.1 -31.4,5.2c-1.1,0.4 -1.4,1.8 -0.7,2.7c27.7,34.1 19.6,81.6 17.1,93.4c0,1.1 1.1,2.3 2.4,2Z" style="fill:#fff;fill-rule:nonzero;stroke:#363635;stroke-width:5px;"/><path d="M77.103,22.969c0,-0 -0.7,-2.9 -0.1,-5.5c7.4,-1.6 18.2,1.5 18.2,1.5l0,-8.9c-5.6,-2.6 -18,-2.2 -22,-1.3c-4,0.9 -4.8,2.9 -5.6,4.6c-8,0.3 -16.5,2.2 -16.5,2.2l5.3,3.2l-4.4,4.9c7.3,-3.1 25.1,-0.7 25.1,-0.7Z" style="fill:#363635;fill-rule:nonzero;stroke:#fff;stroke-width:5px;"/><path d="M211.803,244.769c-11.3,-3.1 -9.1,-3.1 -22.6,-5.7c7.6,-9.1 31.5,-39.2 25.6,-48.8c-7,-11.3 -15.1,-18.8 -12.5,-29.6c2.6,-10.8 20.7,-23.3 24.8,-26.8c4.1,-3.5 -3.2,-9.9 -6.4,-7.1c-3.2,2.8 -5.5,4.9 -13.3,10.6c-9.6,7 -17.4,15.7 -16.6,27.9c0.8,10.9 0.9,41.8 -13.3,58.3c-0.7,0.9 -2.1,-0 -1.6,-1.1c3.4,-7.7 4.3,-18.2 3.6,-26.7c-29.4,14.7 -55.7,17.6 -73.1,17.5c-1,-0 -1.2,-1.5 -0.2,-1.7c28.1,-5.7 70.3,-20.4 72.6,-26.7c2.6,-7 -1.1,-19.7 -1.1,-19.7c0,-0 -13.9,6.9 -33.9,14.9c-6.6,2.9 -13.8,5.6 -21.6,8.1c-1.7,0.5 -3.4,1.1 -5,1.6c-22.7,7.5 -53.3,14.4 -70.2,13.8c-13.7,-0.5 -22.7,-1.8 -25.6,-2.2c-0.5,-0.1 -1,0.3 -1,0.9c0.3,5.1 2.1,26.7 11.9,36.9c-2.2,0.5 -6.1,1.5 -9.1,3c-2.9,1.5 -11.1,9.5 -5,8.8c34.3,-3.9 78.4,-7.5 99.3,-6.9c22,0.6 65.3,7.4 103.6,13.4c6,0.9 -3.4,-11.1 -9.3,-12.7Z" style="fill:#fff;fill-rule:nonzero;stroke:#363635;stroke-width:5px;"/><path d="M201.303,261.969c-20,-4.4 -53.4,-10.8 -82.3,-11.1c-36.7,-0.4 -70.3,4.5 -96.9,10.2c-6,1.3 -4.5,10.3 1.6,9.6c34.3,-3.9 74.5,-7.7 95.3,-7.1c17,0.5 55.4,4.4 80.5,8.1c6.2,0.9 8,-8.3 1.8,-9.7Z" style="fill:#fff;fill-rule:nonzero;stroke:#363635;stroke-width:5px;"/><path d="M162.703,279.269c-14.1,-3.1 -30.2,-5.5 -46.7,-5.7c-20.9,-0.3 -40,2.5 -55.2,5.8c-3.4,0.7 -2.6,5.8 0.9,5.4c19.5,-2.2 42.4,-4.4 54.3,-4.1c9.7,0.3 27.7,2.6 45.4,5.3c4.4,0.7 5.6,-5.8 1.3,-6.7Z" style="fill:#fff;fill-rule:nonzero;stroke:#363635;stroke-width:5px;"/></g></svg>
